<?xml version="1.0" standalone="yes"?>
<svg xmlns="http://www.w3.org/2000/svg" width="1024" height="1019">
<path style="fill:#141414; stroke:none;" d="M467 51C471.553 52.3826 477.292 49.872 482 49.2863C491.005 48.166 499.935 48 509 48C505.301 46.4479 500.983 47 497 47C487.021 47 476.435 47.4604 467 51M501 50C507.052 52.5394 515.454 51.5135 522 52.1705C533.528 53.3278 544.101 56.0407 554 62C551.095 55.921 545.217 54.0689 539 52.4784C526.315 49.2328 513.875 50 501 50M373 74C384.894 70.8863 395.78 63.1072 408 60.3642C427.246 56.0439 446.851 61.476 466 63C460.261 58.431 451.992 58.5074 445 57.8303C438.535 57.2043 431.673 55.2194 425.17 55.5448C413.945 56.1065 403.398 59.6135 393 63.5756C386.736 65.9626 376.682 68.0945 373 74M478 56C481.959 57.6611 486.74 57 491 57L517 57L517 55C504.489 55 490.2 53.0955 478 56M561 63C562.268 68.3969 565.853 72.8846 567.988 78C570.506 84.0308 571.687 91.5058 575 97C576.547 91.612 574.678 87.1595 573 82C578.399 86.9483 584.616 95.6017 582 103L586 103C588.17 110.48 594.075 108.782 600 106.706C610.088 103.171 625.387 97.7012 631 88C620.56 92.4136 612.186 100.575 601 103.867C595.864 105.378 592.733 107.185 588 104C600.37 100.437 607.127 90.2383 617 83C616.014 84.4786 616 84.2029 616 86C620.475 82.1638 623.689 75.7281 625 70C620.216 72.4286 617.565 77.811 613.999 81.7145C607.263 89.0892 599.235 96.9633 590 101L588 96L586 99C583.849 93.4563 581.607 87.8544 577.957 83.0934C575.889 80.3956 572.973 78.5443 570.965 75.8156C567.482 71.0809 566.614 65.7615 561 63M402 69C397.151 79.1531 383.894 80 374 80C378.872 76.7709 384.592 76.07 390 74C381.862 71.498 372.338 77.7762 364 77.5625C359.083 77.4365 356.499 72.3704 352 71L357 79C351.737 78.4118 349.406 76.3319 349 71L347 71C347.136 82.5236 355.933 81.4977 365 81.2593C368.976 81.1547 372.991 81.989 377 82C370.517 85.7425 362.019 84.8172 356 89C360.731 90.3849 364.32 89.1907 369 88.1049C377.878 86.0453 386.457 82.9561 395 79.8117C398.581 78.4937 404.612 78.2921 407.238 75.2979C410.852 71.1774 405.135 69.2391 402 69M406 71L406 75L402 75L404 71L406 71M644 74L644 80C644.951 77.7147 644.951 76.2853 644 74M614 87C609.759 92.0634 604.794 96.613 601 102C605.935 99.6985 614.806 93.0508 614 87M383 92L384 94C367.204 99.7191 353.255 108.216 335 109C338.492 113.943 345.944 111.542 351 110.346C360.863 108.012 369.986 103.765 379 99.2469C383.751 96.8654 389.17 94.6642 392 90C388.889 90.4014 385.969 90.994 383 92M479 99C484.469 101.295 492.099 100 498 100C488.865 103.117 479.077 104.419 470 107.545C457.403 111.882 445.668 118.268 433 122.506C423.86 125.564 408.565 127.819 402 135C415.268 134.394 429.672 128.248 442 123.615C463.725 115.45 486.081 104.421 509.09 100.26C514.176 99.3402 519.841 100 525 100C522.584 96.5803 518.916 97.0112 515 97C520.961 95.2379 526.93 96.268 533 96.9498C539.492 97.6791 547.919 97.7123 554 99.9938C571.536 106.573 581.818 121.738 596.004 132.765C600.076 135.93 604.342 138.975 609 141.214C612.646 142.967 616.747 143.908 619.985 146.419C624.801 150.153 627.65 156.03 631 161C641.282 161.451 645.793 172.686 641 181C643.102 184.565 649.033 188.292 649.883 192.174C650.47 194.856 647.839 197.107 646.366 199C640.602 206.409 636.143 207.128 627.04 207.861C622.102 208.259 620.597 204.393 617.829 201C613.466 195.651 609.13 191.701 603 188.486C587.089 180.141 565.593 179.547 548 183.529C531.542 187.254 515.452 198.96 502 208.573C497.467 211.812 491.023 214.672 487.746 219.3C483.198 225.723 491.848 233.775 485.837 239.772C482.212 243.389 477.501 242.528 473 243.904C462.258 247.189 451.92 251.168 441 254C445.214 249.786 450.35 245.88 452 240C447.346 240.63 443.322 242.236 439 244C442.461 240.558 446.795 237.391 449 233C443.291 233.701 437.198 232.9 442.399 226C446.854 220.09 453.217 216.583 455 209C450.203 211.747 446.573 216.35 442 219.56C434.855 224.576 420.633 228.049 418 237C424.644 235.476 431.47 230.938 437 227C435.947 231.906 436.685 234.576 442 235C438.415 239.875 433.466 242.837 432 249C437.672 247.702 442.637 244.233 448 242C444.126 246.433 438.673 249.09 437 255C425.671 255.902 416.372 260.688 406 264.746C402.819 265.991 399.283 266.232 396.17 267.549C393.923 268.499 392.252 270.388 389.961 271.262C385.705 272.886 380.468 272.439 376 273.503C369.13 275.139 362.988 279.05 358.043 284.04C336.929 305.349 354.707 342.29 375 357.39C384.698 364.607 396.713 368.37 407 374.66C414.833 379.449 423.212 387.061 432.999 386.805C442.044 386.568 452.233 369.936 441 366C440.999 372.222 440.883 381.988 432 381.642C424.982 381.369 416.32 373.32 410 370.258C388.344 359.766 369.423 349.757 358.782 327C354.038 316.855 351.584 302.985 357.97 293C365.701 280.912 378.399 276.853 392 278.17C396.242 278.581 402.915 282.246 406.83 280.883C409.696 279.886 412.118 277.404 415.004 276.208C427.418 271.062 439.763 265.794 452 260.231C458.926 257.082 468.231 251.975 476 252.518C482.939 253.003 491.405 255.312 496.985 259.557C501.659 263.113 504.743 267.77 510 270.688C527.72 280.521 546.498 286.733 566 291.884C572.299 293.548 579.467 297.316 586 297.465C591.216 297.583 597.499 294.103 602 291.737C627.726 278.212 632.894 250.358 628 224C630.872 224.002 634.194 223.628 636.911 224.742C640.95 226.4 643.893 230.985 646.997 233.91C655.174 241.614 662.507 250.042 669.346 259C672.921 263.684 679.2 270.644 678.366 277C677.266 285.378 672.03 286.061 666.301 289.968C661.114 293.504 658.734 300.098 660 306C662.919 304.667 665.338 302.797 668 301C668.343 306.728 665.428 311.525 661 315C660.326 312.703 660.035 312.226 658 311C658.415 320.519 662.153 330.363 666 339C660.005 339 651.644 337.019 646 338.714C637.839 341.164 631.607 347.668 625.92 353.576C615.163 364.749 605.587 377.274 595.424 389C592.692 392.153 589.059 395.237 587.179 399C584.018 405.326 585.834 416.351 587.201 423C587.726 425.557 588.13 428.52 590.314 430.254C594.572 433.636 601.652 429.48 606 427.997C618.651 423.682 629.617 421.309 643 423C640.424 414.519 643.891 407.884 647.139 400C650.438 391.994 653.916 383.318 656.254 375C657.819 369.431 657.69 361.246 663 358C660.222 353.591 654.772 353.805 650 354.424C640.645 355.638 634.099 356.659 626 362C630.513 355.177 636.931 347.392 645 344.702C648.729 343.459 653.126 344 657 344C660.93 344 666.634 343.109 668.968 347.148C671.096 350.83 668.873 356.349 667.644 360C663.93 371.036 657.586 381.133 653.468 392C650.553 399.692 652.026 409.07 653.17 417C653.689 420.604 655.467 424.32 654.552 427.999C653.244 433.257 647.731 436.531 643 438.289C631.975 442.387 618.196 442.146 607 439C607.176 444.161 603.788 447.373 602 452C606.827 449.862 610.788 445.899 616 444.557C625.05 442.227 632.456 446.483 641 448C640.453 446.125 639.89 444.745 639 443C640.906 442.872 643.782 442.152 645.529 443.198C648.937 445.237 647 455.522 647 459C647 474.503 646.915 490.664 640.457 505C637.113 512.422 633.899 522.101 627.895 527.79C622.608 532.8 614.899 535.296 608 537.116C590.801 541.653 575.222 540.199 558 537C560.692 545.748 574.16 546.987 582 548C566.086 555.054 549.073 555 532 555C544.583 564.414 565.627 561.787 580 559C580.007 562.195 580.607 565.933 579.575 569C577.035 576.543 569.598 583.205 565.464 590C560.55 598.076 557.986 607 555.421 616C543.459 657.976 532.414 700.096 524.066 743C520.018 763.805 516.014 784.628 516 806C513.033 799.834 513.746 792.59 511.985 786C510.067 778.828 506.773 772.022 504.344 765C501.242 756.034 498.819 746.583 494.738 738C489.428 726.831 482.901 716.319 477.861 705C472.905 693.87 469.473 681.889 464.029 671C460.266 663.472 455.375 656.545 451.602 649C446.547 638.892 442.949 628.278 438.335 618C422.056 581.734 407.019 545.421 400.084 506C397.443 490.986 394.688 476.117 392.718 461C391.648 452.785 389.446 443.208 391.557 435C393.537 427.302 399.22 420.741 403.124 414C406.636 407.936 415.403 393.448 407 388C406.999 392.71 407.678 398.754 404.297 402.571C402.199 404.939 398.869 405.882 396.576 408.144C394.327 410.362 391.568 414.786 388.001 414.793C384.371 414.801 381.472 410.115 378 409C378.547 415.068 380.809 419.496 387 421C377.58 424.56 371.201 429.772 364.143 437.17C360.827 440.646 359.413 445.943 354.995 448.384C352.589 449.713 350.508 448.622 348 448.449C344.409 448.201 340.63 448.99 337 449C338.801 445.699 339.69 442.751 340 439C339.163 439.222 337.834 439.818 336.859 439.718C328.494 438.865 335.392 431.248 334.624 426.961C333.976 423.343 331.031 421.43 328 420L329 423C323.442 420.739 316.972 421.443 312.004 418.235C305.954 414.327 303.45 407.138 297 404C300.879 411.249 306.127 419.151 314 422.366C319.694 424.69 332.612 421.564 333 430L331 427C329.538 430.474 330.438 433.771 327 436C329.205 439.885 332.702 441.233 337 442C335.893 445.954 333.315 448.659 331 452C336.736 450.732 341.366 451.542 347 453C343.03 455.081 339.472 455.905 335 456L335 458C340.297 457.887 344.897 456.181 350 455C341.929 466.335 337.392 482.919 325.96 491.49C321.987 494.468 316.558 495.627 312 497.449C300.506 502.043 288.593 504.856 277 509.054C263.146 514.071 249.145 519.591 236 526.273C230.163 529.24 224.977 533.367 219 536.1C207.881 541.183 195.768 544.599 185.04 550.532C176.87 555.051 175.015 565.812 167 571.034C160.799 575.074 153.479 575.862 147 579.099C131.368 586.91 113.842 598.291 101.019 610.174C92.8787 617.716 88.4195 629.667 82.5756 639C70.2837 658.631 56.9185 678.029 47 699C56.1962 693.441 61.4362 682.804 66.9498 674C73.8131 663.041 81.9692 652.921 88.8187 642C93.8321 634.007 97.3943 624.854 104.019 618.001C123.173 598.186 150.058 582.657 176 573.548C183.709 570.841 192.157 570.096 200 567.485C207.195 565.089 213.873 561.549 221 559.079C227.907 556.687 235.086 555.072 242 552.655C247.514 550.728 252.501 547.645 258 545.699C262.599 544.071 267.452 543.489 272 541.691C282.09 537.704 293.027 532.503 304 532C302.988 536.676 300.293 540.504 298.76 545C296.033 552.999 294.588 561.196 291.138 569C282.348 588.885 270.465 607.354 263.484 628C261.605 633.556 258.972 638.875 256.139 644C254.143 647.612 251.341 651.613 252.333 655.985C253.482 661.048 259.969 663.961 264 666.467C268.777 669.436 274.023 671.268 279 673.819C287.679 678.268 296.411 683.723 306 686C299.495 695.243 290.779 702.62 283.015 710.745C277.978 716.016 273.706 722.234 269.255 728C265.87 732.385 259.826 736.432 258.448 742C257.46 745.996 259.427 750.278 260.667 754C263.219 761.667 265.702 769.363 268.344 777C272.322 788.5 274.949 800.6 278.965 812C282.538 822.141 287.833 831.451 292.573 841C296.148 848.202 298.4 856.5 301.4 864C305.695 874.739 310.429 893.462 323 897C320.821 892.081 317.242 887.958 315.039 883C310.705 873.242 308.196 862.845 304.139 853C294.491 829.589 284.033 807.075 276 783C272.918 773.762 268.55 765.137 265.345 756C264.216 752.781 262.022 748.472 262.927 745C264.359 739.505 271.051 735.293 274.486 731C283.64 719.56 293.83 709.454 304.04 698.985C309.118 693.778 314.803 688.958 319 683C305.142 678.312 292.351 671.624 279 665.873C273.598 663.546 264.864 661.802 262.068 655.957C260.356 652.379 262.716 648.207 264.258 645C268.015 637.19 272.124 629.255 274.806 621C279.738 605.823 288.135 592.468 294.561 578C298.74 568.591 300.564 558.336 304.529 549C307.834 541.215 313.026 534.281 317.254 527C321.398 519.863 324.63 512.193 328.719 505C335.516 493.044 340.523 479.389 348.105 468C353.272 460.238 361.069 454.062 367.242 447.089C370.977 442.871 372.546 438.788 375.275 434.02C376.219 432.37 377.716 430.207 379.87 430.207C383.312 430.207 382.523 434.932 382.11 437C380.64 444.366 378.802 451.68 377.119 459C374.607 469.923 373.68 481.109 371.486 492C369.064 504.023 365.804 515.791 364.285 528C363.166 536.995 363.463 546.103 361.804 555C360.507 561.958 361.268 568.972 360.961 576C360.231 592.657 360.395 609.3 359.985 626C358.83 673.153 358.827 720.722 359.985 768C360.346 782.704 361.247 798.362 359.83 813C358.601 825.705 355.967 838.199 355.09 851C352.396 890.302 350.684 929.778 349 969C354.86 962.262 351.143 950.315 352.439 942C356.41 916.521 360 891.848 360 866C360 848.365 363.133 831.472 364.83 814C366.124 800.685 366.021 787.381 366 774C365.98 761.558 365.762 748.44 364.91 736C364.273 726.693 362.483 716.24 364.594 707C366.583 698.296 371.259 691.687 375.575 684C380.261 675.653 384.914 666.639 389 658C408.553 684.894 429.207 708.159 455 729.385C469.32 741.169 485.155 752.798 496 768C499.547 772.972 503.9 777.979 505.482 784C510.238 802.102 510.811 821.412 503.932 839C499.34 850.741 491.844 861.478 486.665 873C482.254 882.814 479.386 893.07 475.395 903C470.967 914.019 465.305 925.125 463.326 937C461.708 946.707 462.583 956.297 463 966C466.503 960.19 465.48 953.458 466.174 947C466.807 941.106 468.802 934.649 470.594 929C476.758 909.571 488.133 891.163 497.373 873C505.008 857.994 520.078 848.047 527.63 833C544.842 798.704 551.934 759.894 570.309 726C577.172 713.34 584.64 700.792 592.9 689C597.331 682.674 602.966 677.213 606 670C608.512 676.562 608.885 683.187 610.286 690C614.289 709.476 616.027 729.409 619.324 749C620.194 754.168 622.435 758.982 623.845 764C627.344 776.458 630.721 789.327 633.334 802C635.362 811.834 635.957 822.066 637.427 832C640.104 850.081 643.496 868.055 646.999 886C648.237 892.34 647.879 898.67 648.769 905C649.929 913.258 652.83 921.021 655.091 929C657.725 938.294 659.645 948.335 664 957L666 957C667.19 951.809 664.112 947.861 662.52 943C660.052 935.464 658.967 927.586 656.519 920C654.498 913.736 654.41 907.421 653.41 901C651.636 889.62 649.318 878.355 647.414 867C643.064 841.061 639.615 814.725 634.196 789C631.079 774.203 625.764 759.843 622.808 745C621.169 736.769 620.893 728.283 619.562 720C617.043 704.324 613.296 688.751 611.286 673C609.245 657.011 608.664 641.064 607.961 625C607.173 607.008 607 589.055 607 571C607 563.854 605.119 553.857 607.028 547.023C608.42 542.037 614.956 542.347 619 540.796C627.036 537.712 636.143 533.1 640 525C662.197 531.436 679.87 549.625 702 556C690.619 565.911 676.668 573.046 663 579.309C655.428 582.778 647.295 586.758 639 588C643.797 596.377 653.718 602.221 661 608.325C668.49 614.603 674.756 622.275 682 628.83C686.877 633.243 696.078 638.679 698.393 645.015C699.823 648.931 697.821 653.269 696.721 657C695.182 662.219 694.334 667.677 693.211 673C691.545 680.896 691.937 689.015 690.704 697C688.747 709.667 685.453 722.221 684.171 735C683.104 745.624 683.84 756.394 682.83 767C680.412 792.405 679.3 817.468 678.996 843C678.94 847.703 677.923 852.288 678.015 857C678.547 884.028 681.003 910.938 681 938C685.892 934.543 684 925.403 684 920C684 912.279 683.095 904.674 683.004 897C682.89 887.433 683.833 877.509 682.714 868C681.521 857.851 683.213 847.187 683.911 837C684.709 825.346 685.112 813.665 685.911 802C687.479 779.095 686.994 755.842 689.17 733C690.094 723.294 692.02 713.652 693.289 704C695.127 690.03 697.632 675.727 700.884 662C702.162 656.606 706.32 647.439 704.382 642.039C702.25 636.099 692.765 631.146 688 627.335C680.995 621.733 674.723 615.213 668 609.286C661.322 603.398 652.778 597.241 649 589C657.491 587.348 665.203 583.902 673 580.219C679 577.385 685.233 574.601 691 571.323C695.747 568.626 699.939 565.066 703.98 561.421C705.535 560.018 707.793 558.336 707.793 556.001C707.793 551.054 699.612 548.696 696 547.316C683.202 542.427 671.583 534.695 659 529.281C650.92 525.804 641.364 524.622 645.005 514.001C645.545 512.424 646.048 510.656 647.086 509.318C649.542 506.149 655.385 506.667 659 506.71C669.714 506.836 680.587 506.149 691 508.989C709.319 513.986 725.604 521.366 742 531.011C747.855 534.455 754.973 537.486 759.907 542.185C763.472 545.581 765.319 549.942 767.949 554C773.261 562.197 778.617 569.398 781.306 579C784.955 592.028 788.371 605.02 792.28 618C793.963 623.587 794.446 630.088 800 633C798.215 618.951 794.373 604.444 790 591C796.528 597.01 795.671 608.673 804 613C806.846 603.093 799.645 593.251 797 584C805.782 595.508 813.959 607.894 821.9 620C825.644 625.709 828.64 631.828 833.184 637C841.497 646.46 850.406 655.536 858.884 664.857C862.543 668.879 867.272 670.942 869.967 676C871.61 679.084 871.417 682.68 872.312 686C875.762 698.782 890.928 707.244 898.254 718C909.598 734.657 915.009 753.973 925.583 770.981C930.01 778.101 937.811 784.417 943.25 791C949.651 798.746 956.964 806.668 965.015 812.705C966.936 814.146 972.775 819.862 974.824 815.663C976.01 813.232 973.468 810.684 972.03 809.039C967.294 803.625 962.238 798.504 957.59 793C954.249 789.042 950.54 786.891 946.898 783.532C942.593 779.56 938.219 772.984 935.143 768C931.529 762.144 930.654 755.084 927.725 749C922.651 738.459 914.471 728.329 907.475 719C901.272 710.728 896.542 701.284 890.25 693.17C887.939 690.19 884.727 688.067 882.51 684.996C879.779 681.213 878.691 676.679 875.671 673C864.631 659.555 850.964 648.137 840.745 634C831.533 621.256 828.467 605.696 819.516 593C812.082 582.456 800.935 574.303 792.039 565C783.277 555.836 774.498 545.669 764.961 537.325C758.402 531.587 750.428 527.949 743 523.548C727.325 514.259 710.254 504.367 692 501.326C678.684 499.107 662.321 500.316 649 502C652.378 483.819 651.21 465.267 653.174 447C653.962 439.671 659.624 434.233 659.953 427C660.422 416.688 654.665 406.493 656.214 396C658.601 379.829 673.685 367.506 675.439 351C676.549 340.559 666.515 331.945 665.89 322C665.687 318.762 668.036 315.855 669.251 313C671.847 306.898 674.183 300.367 676 294C680.712 296.299 684.106 294.347 689 293.465C691.965 292.93 695.125 293.275 697.999 292.297C704.102 290.221 710.112 282.916 712.235 277C719.75 256.06 715.254 231.092 704.687 212.001C700.372 204.205 689.746 197.977 681 196.275C674.442 194.998 665.753 196.668 660.464 191.697C657.071 188.508 651.927 182.535 650.678 178C649.597 174.075 652.6 169.242 649.397 165.88C644.431 160.667 638.333 156.261 633.464 150.896C628.711 145.659 625.431 139.592 619.91 135.012C610.996 127.617 599.793 122.374 590 116.188C582.061 111.174 575.014 104.928 567 100C560.169 101.692 554.201 93.0189 547 92.6628C542.323 92.4315 537.659 93.8224 533 93.821C525.753 93.8187 519.314 92.8369 512.015 94.1489C508.866 94.7148 506.134 96.4818 502.961 96.8704C494.726 97.8787 486.999 96.0847 479 99M379.667 93.3333C379.222 93.778 380.278 93.7222 380.333 93.6667C380.778 93.2223 379.722 93.2777 379.667 93.3333M375 94C376.248 94.6848 376.548 94.7488 378 95C376.752 94.3151 376.452 94.2512 375 94M588 103L587 104L588 103M290 151C303.913 145.937 316.52 137.587 331 133.756C339.197 131.588 347.607 132 356 132C351.315 128.662 345.545 129.001 340 129C351.326 119.872 363.524 113.282 376 106C369.516 104.202 360.313 111.118 355 114.425C347.884 118.855 341.447 126.036 334 129.57C323.276 134.659 311.573 136.964 301 142.862C297.057 145.061 292.468 147.154 290 151M583 109C584.769 109.779 586.036 109.912 588 110C586.231 109.221 584.964 109.088 583 109M299 154L299 156L303 157C305.487 152.629 310.514 151.305 315 149.424C325.417 145.056 336.547 143.13 347 139C342.391 137.085 337.634 139.33 333 140.421C321.031 143.241 309.618 147.803 299 154M403 154C412.432 151.284 420.964 145.762 430 142C426.994 140.969 424.841 142.079 422 143.414C416.235 146.122 406.8 148.817 403 154M433 145C429.441 153.248 422.058 160.243 420 169C424.838 166.528 426.879 161.406 431 158C429.564 165.956 422.821 171.252 421 179C426.85 176.141 439.113 160.265 431 155C432.895 151.738 434.336 148.724 435 145L433 145M308 155C304.257 159.4 298.761 162.104 294 165.344C286.47 170.469 279.063 175.856 272.001 181.611C266.743 185.896 260.636 190.135 259 197C264.138 194.058 268.404 189.048 273 185.25C280.422 179.118 288.228 173.519 296 167.849C299.888 165.013 304.272 160.323 309 159.039C313.379 157.849 319.54 160.931 324 161.572C330.955 162.57 337.225 161.398 344 160C337.828 157.41 329.624 159.396 323 158.91C317.709 158.522 313.098 156.089 308 155M495 162L496 167C493.036 167.968 492.497 168.934 492 172C489.795 172.094 488.106 172.356 486 173C488.711 182.005 483.088 180.767 477.545 185.815C475.025 188.109 473.331 191.938 472 195C478.953 196.302 487.759 192.184 494 189.351C504.414 184.623 515.47 180.508 526 176.104C529.986 174.437 544.053 174.256 542.248 167.14C541.452 163.996 536.479 162.876 534 161.482C527.721 157.949 518.414 155.371 511.129 157.314C508.61 157.986 507.229 160.297 504.871 161.262C501.89 162.482 498.153 162 495 162M537 169C526.224 169.559 514.901 177.173 505 181.269C499.901 183.379 493.299 185.93 488 184C490.221 180.581 491.883 175.589 494.587 172.684C502.37 164.322 515.857 157.68 527 161.795C531.502 163.457 535.499 164.04 537 169M365 163C375.135 163 386.37 161.49 396 165C392.26 158.194 381.712 159.997 375 160C370.995 160.002 367.334 159.4 365 163M359 186C361.845 182.997 363.627 179.158 367.04 176.649C374.44 171.208 384.541 172.931 393 174C390.207 169.789 385.68 170.006 381 170C370.127 169.986 359.305 173.385 359 186M279 186C282.644 186.532 285.797 183.909 289 182.258C294.981 179.176 301.335 176.147 308 175C299.614 171.588 285.781 181.514 279 186M410 190C421.021 189.765 430.17 182.957 439 177C432.5 174.752 423.888 182.803 418 185.32C414.766 186.703 411.943 186.965 410 190M278 194C285.478 189.699 291.934 184.359 300 181C293.059 179.097 280.905 188.055 278 194M441 187C430.193 191.79 417.514 191.911 407 197C413.036 201.549 427.271 195.665 434 193.564C437.369 192.512 441.891 191.116 441 187M242 204L242 206C253.271 206 263.34 203.628 274 199.997C280.487 197.787 286.705 195.561 291 190C274.481 195.218 259.968 203.95 242 204M567 192C558.927 203.807 548.956 214.039 547.468 229C546.947 234.229 547.557 240.759 548.184 246C548.519 248.799 550.162 251.953 549.589 254.786C548.811 258.634 544.114 258.838 541 259C541.396 253.678 539.171 249.245 539.015 244C538.441 224.654 543.918 196.166 567 192M599 195C594.851 195.773 591.252 195.891 589 192C592.905 192.092 595.9 192.535 599 195M441 193C435.869 203.743 419.417 203.993 409 204C411.433 207.752 415.836 207.144 420 206.961C429.307 206.55 441.794 203.819 443 193L441 193M549 194C545.632 198.533 540.695 201.769 535.001 202.667C533.015 202.98 529.516 203.204 528.752 200.725C527.93 198.06 531.015 196.365 533.019 195.613C537.979 193.752 543.897 192.534 549 194M573 198L576 201C573.539 203.2 572.562 205.871 570.416 208.241C568.641 210.201 566.123 211.318 564.388 213.326C562.168 215.895 561.174 219.859 560 223C568.821 221.294 575.952 213.806 584 210C578.445 217.242 565.651 220.415 570 231C577.486 226.677 583.223 219.874 591 216C586.493 221.89 579.757 226.345 574 231C570.108 234.146 566.224 236.741 566 242C577.829 235.896 585.624 223.239 598 218C589.326 229.342 575.297 236.254 567 248L575 250C574.106 251.133 569.215 255.497 570.921 257.093C572.709 258.767 577.611 253.957 579 253L579 257C585.622 254.434 589.904 248.524 596 245C592.2 250.35 586.848 254.047 582.02 258.425C579.415 260.788 577.235 262.725 579 266L578 269C582.163 269.154 584.582 267.212 588 265C588.258 267.848 587.56 270.184 587 273C591.589 271.724 594.908 268.362 599 266C599.684 267.58 599.805 267.777 601 269C595.548 282.404 574.604 278.059 566.093 269.826C552.48 256.655 550.818 227.827 559.873 212C563.115 206.333 566.98 200.809 573 198M609 200C610.274 201.341 611.041 202.403 612 204C609.857 202.869 608.901 202.432 609 200M523.847 202.881C527.143 202.603 525.954 206.14 524.752 207.68C522.172 210.988 515.536 216.973 511.153 217.172C507.765 217.326 509.092 213.676 510.337 212.089C512.799 208.95 519.718 203.23 523.847 202.881M659 219C655.552 213.952 657.031 207.402 659 202C665.028 205.419 659.489 213.398 659 219M364 228C366.818 222.739 367.27 216.788 371.34 212.043C379.073 203.031 394.009 205.092 401 214C403.295 206.69 391.446 203.525 386 203.093C371.24 201.925 361.391 213.733 364 228M683 203C680.269 205.205 677.404 206.191 674 207C676.752 204.73 679.494 203.625 683 203M690 206L689 207L690 206M233 208C236.36 214.571 243.14 215.943 250 216L250 218L241 218C246.804 222.396 257.157 218.294 264 218C255.169 226.758 243.354 234.009 236 244C251.469 243.326 266.573 235.992 282 234C277.139 232.017 270.852 234.215 266 235.656C258.772 237.803 251.299 239.112 244 241C251.482 233.518 258.947 223.905 268.04 218.329C272.914 215.34 278.917 214.679 284 212C278.118 209.896 268.3 213.969 262 214.714C251.527 215.954 241.9 213.304 233 208M347 209C350.707 212.746 355.828 215.078 361 216C356.946 212.606 352.139 210.232 347 209M696 210C690.447 213.735 683.433 217.147 677 219C681.287 214.36 689.563 209.245 696 210M379 216C383.857 217.02 389.794 214.044 395 214C389.226 210.931 384.306 212.919 379 216M321 218C326.509 221.366 334.653 222.925 341 224C335.893 219.76 327.524 218.284 321 218M637 218.333C637.773 218.333 637.16 218.831 636.667 218.667L637 218.333M628 219.333C628.773 219.333 628.16 219.831 627.667 219.667L628 219.333M621 222L621 228C619.269 226.994 617.947 226.453 616 226C617.624 223.956 618.643 223.104 621 222M342.667 224.333C342.222 224.778 343.278 224.722 343.333 224.667C343.778 224.222 342.722 224.278 342.667 224.333M505 229C510.662 232.149 521.68 233.104 528 232C522.582 238.118 516.654 231.336 511.303 235.607C507.897 238.326 506.245 245.918 507.742 249.911C508.562 252.098 510.699 253.712 511.022 256.089C511.367 258.622 509.683 261.599 509 264C503.538 260.861 500.929 254.804 496 251L496 248C504.891 243.992 502.639 236.841 505 229M705 229C705.88 231.326 706.493 233.564 707 236C703.417 238.193 699.86 240.337 696 242C698.334 238.423 702.389 236.515 705 233C702.879 232.754 701.126 232.769 699 233C700.868 231.231 702.691 230.163 705 229M659 231L659 238C655.132 235.84 655.132 233.16 659 231M621.667 240.667C621.722 240.722 621.778 241.778 621.333 241.333C621.278 241.278 621.222 240.222 621.667 240.667M388 245C387.825 253.232 382.942 258.45 381 266C386.928 267.289 395.604 266.611 399 261C395.354 260.51 392.534 261.094 389 262C389.245 256.632 394.767 247.253 388 245M263 247C257.892 255.167 250.989 260.832 243 266C246.996 267.37 250.389 264.676 254 263C246.395 270.674 241.966 278.004 244 289C245.6 285.187 244.753 280.929 246.353 277C251.322 264.79 261.773 261.299 273 257C267.332 255.279 260.489 259.502 255 261C258.929 256.722 262.499 252.263 265 247L263 247M710 251C707.959 254.385 704.662 255.686 701 257C703.61 254.154 706.391 252.369 710 251M228 265C235.284 263.746 247.021 259.507 251 253C246.513 254.86 242.49 257.65 238 259.573C234.467 261.085 230.347 261.871 228 265M307 262C310.658 263.082 314.327 261.201 318 260.45C323.348 259.357 328.557 259.001 334 259C323.457 263.932 304.632 268.962 302 282C306.077 279.996 309.267 276.469 313.001 273.862C318.974 269.691 325.328 266.543 332 263.654C337.783 261.149 346.376 260.306 350 255C335.491 256.834 320.258 254.463 307 262M445 286C446.036 284.105 447.322 282.224 447.421 279.995C447.513 277.945 446.43 276.043 447.148 274C448.604 269.854 453.098 267.078 455 263C449.643 264.305 440.836 268.73 440.139 275C439.864 277.473 441.71 279.513 441.278 282C440.723 285.194 437.222 289.063 440.722 291.889C444.827 295.203 451.252 287.34 445 286M534 275C529.571 274.893 520.375 273.047 518.176 268.506C516.64 265.333 520.897 262.895 523.407 264.661C525.547 266.167 526.982 268.75 529.024 270.445C530.901 272.004 532.608 273.009 534 275M602 282C596.418 286.942 590.895 286.183 584 286.015C567.591 285.614 554.278 280.574 544 267C546.311 266.013 549.362 263.83 551.961 264.102C555.381 264.46 557.75 268.741 560.039 270.895C563.951 274.576 569.176 277.172 574 279.475C582.437 283.502 592.95 282.528 602 282M613 266C611.347 269.436 609.678 270.959 606 272C608.065 269.457 610.223 267.745 613 266M694 273.333L694.333 273.667C693.84 273.831 693.227 273.333 694 273.333M420 284C419.647 286.792 417.913 291.934 420.024 294.338C424.218 299.113 426.057 287.05 425.902 285.001C425.751 283.004 425.409 280.263 423.486 279.131C420.918 277.62 413.483 279.259 412.256 282.103C410.036 287.247 418.18 284.659 420 284M273 282C279.461 294.751 295.786 296.432 308 293C302.596 291.062 295.923 293.313 290 291.566C283.558 289.665 278.944 284.719 273 282M430 282L429 283C430.904 288.677 435.12 294.773 433.424 301C432.322 305.043 429.126 307.941 428 312L433 311C430.147 313.51 428.594 315.213 428 319C433.862 318.347 437.327 315.137 440 310C440.986 311.479 441 311.203 441 313C450.332 308.429 452.142 295.237 451 286C447.739 291.811 444.878 299.605 443 306L438 305C439.448 296.837 438.179 286.006 430 282M609 306C611.984 314.013 623.134 317.604 629.79 311.606C633.668 308.111 634.948 302.649 639.054 299.317C642.221 296.747 646.568 296.268 650 294L649 298C658.086 294.917 655.129 281.907 645 284.819C636.593 287.235 634.259 296.123 630.726 303C628.949 306.458 626.333 310.999 621.999 311.356C617.352 311.74 613.006 307.749 609 306M265 286C265 300.874 258.156 314.578 242 317L242 319C253.824 318.748 263.077 311.563 266.363 300C267.614 295.598 267 290.534 267 286L265 286M410 358C405.302 356.647 400.929 354.417 397 351.485C381.05 339.586 359.155 311.01 378.301 292.224C380.762 289.809 383.935 288.466 387 287C375.541 282.237 368.172 296.707 367.174 306C365.148 324.853 373.928 339.3 387 351.985C392.198 357.029 405.055 367.797 410 358M684 290L678 290C680.385 287.632 682.002 287.031 684 290M283 294C286.542 300.813 294.117 300.995 301 301C294.961 298.288 288.915 297.525 283 294M388 302C385.402 311.245 385.514 330.027 398 332C396.884 325.74 393.325 320.196 391.76 314C390.769 310.078 391 306.012 391 302L388 302M571 380C575.606 371.526 577.893 361.003 581.604 352C583.924 346.373 587.857 341.654 590 336C586.546 333.609 588.16 330.397 589.806 327C592.922 320.572 597.26 314.222 598 307C590.542 310.488 587.266 317.973 583.753 325C574.748 343.011 571 359.974 571 380M323 331C324.663 328.778 325.355 326.705 326 324C327.4 328.69 327.106 332.564 331 336L328 319C332.287 318.138 334.574 311.61 337 308C328.774 311.868 323.461 322.111 323 331M402 313C400.305 317.401 399.101 321.254 399 326C405.157 324.972 404.773 318.277 405 313L402 313M650 320C650.004 325.614 649.866 330.221 656 332C655.902 327.814 654.692 324.084 654 320L650 320M236 321C238.889 328.751 250.298 332.647 258 333C252.825 328.819 245.15 326.557 239 324C246.604 323.563 254.369 324 262 324L262 322C253.233 322 244.716 321.688 236 321M263 327C269.971 332.281 284.271 328.172 292 326C289.044 324.94 286.123 325.763 283 325.975C276.28 326.432 269.757 327 263 327M418 326C418.366 328.114 419.295 330.724 418.137 332.738C416.499 335.587 412.699 336.081 410.318 338.049C407.209 340.618 408.005 344.625 409 348L411 348C415.364 339.861 421.473 343.385 429 344C430.111 336.175 426.513 327.317 418 326M334 327C334.017 332.973 334.556 337.675 340 341C338.049 336.114 336.115 332.381 336 327L334 327M239 333C239.664 341.776 246.706 341.995 254 342C247.569 339.112 243.208 339.504 239 333M263 340C263 351.889 260.466 356.798 250 363C262.649 367.876 267.492 348.45 263 340M538 400C541.876 397.262 540.852 392.316 541.615 388C543.498 377.348 549.936 367.62 551 357C546.867 359.148 545.184 362.932 543.109 367C537.666 377.669 538 388.35 538 400M361 360C361 368.839 362.924 380.506 352.004 383.442C350.036 383.971 348.018 383.957 346 384C351.817 387.974 360.023 385.476 362.91 378.985C365.205 373.825 364.559 365.273 363 360L361 360M297 362C296.046 366.605 294.849 373.389 290.62 376.227C287.952 378.018 283.846 376.834 281 376.076C272.468 373.805 265.181 368.977 257 366C263.827 374.699 278.288 378.911 289 379C285.032 384.617 280.106 388.013 274 391C277.959 392.37 281.828 390.092 285 387.61C291.666 382.393 300.778 371.088 297 362M381 391C382.227 388.075 381.724 385.081 382.39 382C383.071 378.857 384.773 375.953 386 373C379.482 376.41 379.096 384.559 381 391M391 377C391 387.215 391.363 394.998 386 404C394.214 402.252 393.371 394.735 394.129 388C394.588 383.922 396.094 381.103 395 377L391 377M322 380C326.016 383.894 330.319 386.911 333.015 392C336.169 397.952 337.819 406.585 344 410C340.838 399.023 334.483 382.261 322 380M293 387L293 396L288 394C289.155 396.735 290.697 399.035 291 402C297.644 400.709 303.238 406.405 310 407C306.54 402.373 299.282 402.179 295.603 397.61C293.216 394.645 294.407 390.354 293 387M401 395C396.602 401.066 390.453 408.345 382.002 405.262C379.465 404.337 377.245 402.458 375 401C378.535 408.397 386.867 410.788 393.985 406.633C397.935 404.328 402.268 399.776 401 395M401 408C400.316 409.58 400.195 409.777 399 411C399.684 409.42 399.805 409.223 401 408M571 408C567.484 413.967 564.037 420.076 563 427C561.359 425.428 560.249 423.917 559 422C555.728 426.319 557.376 431.981 558.25 437C560.385 449.264 563.785 470.796 576 477C570.677 462.372 566.34 450.975 567.039 435C567.284 429.411 568.1 423.469 569.289 418C570.037 414.562 571.958 411.456 571 408M580 415C574.895 428.633 578.759 440.872 587 452L589 452L590 451C588.296 445.921 585.651 441.252 584.428 436C582.86 429.262 582.819 421.279 580 415M350 450C348.752 450.685 348.452 450.749 347 451C348.248 450.315 348.548 450.251 350 450M545 451C543.912 459.605 546.851 476.31 536 478C538.548 484.66 546.072 483.58 548.196 476.985C550.242 470.631 548.392 456.662 545 451M385 458C386.878 472.541 391.783 486.564 394.386 501C397.55 518.548 398.856 536.95 404.359 554C411.113 574.928 421.576 594.092 430.691 614C437.293 628.418 442.402 643.552 448.904 658C451.829 664.5 455.851 670.501 458.822 677C464.103 688.552 468.146 700.696 473.981 712C482.237 727.996 492.193 743.424 497 761C492.967 758.974 490.156 755.178 486.996 751.999C482.519 747.496 477.763 743.348 473 739.155C453.161 721.69 432.042 705.316 415.015 685C408.72 677.49 402.645 669.296 397.424 661C395.863 658.519 393.579 653.207 390.053 653.207C386.716 653.207 384.203 658.63 382.695 661C376.66 670.487 372.736 681.273 367 691C365.19 686.686 366.259 681.617 365.715 677C363.856 661.245 364.971 645.724 364.971 630C364.971 620.683 363.73 611.319 364.209 602C364.826 590.001 366.435 577.996 366.961 566C367.499 553.716 366.864 541.229 368.174 529C369.179 519.618 372.581 510.244 374.487 501C377.432 486.716 380.048 472.304 383 458L385 458M600 472C603.883 470.955 607.039 468.34 611 467.483C615.348 466.543 619.701 467.271 624 466C616.471 460.296 603.683 463.765 600 472M459 538C459.41 540.775 460.149 543.327 461 546L463 546C465.994 539.779 465.15 532.683 464.282 526C462.926 515.566 460.845 505.98 457.506 496C456.087 491.758 455.276 485.907 452.837 482.167C451.698 480.421 449.511 479.305 448.028 481.377C445.593 484.777 448.442 491.463 449.424 495C451.961 504.129 453.108 513.506 452.996 523C452.944 527.439 450.702 533.64 452.603 537.833C454.128 541.193 456.821 539.42 459 538M481 493C479.819 499.314 486.476 508.984 492.09 511.969C495.909 514.001 501.745 514.437 506 516C506.691 511.323 503.505 509.56 499.999 506.87C493.817 502.126 488.254 496.067 481 493M321 501C319.018 508.245 314.65 519.215 308.61 524.006C302.163 529.12 291.613 531.029 284 533.914C262.571 542.037 241.082 550.19 219 556.015C210.036 558.379 201.981 563.361 193 565.497C190.491 566.094 184.984 567.886 183.043 565.382C180.711 562.373 184.014 557.422 186.214 555.394C192.54 549.559 203.048 546.196 211 543.228C221.628 539.26 231.503 534.186 242 530C260.719 522.535 279.96 515.886 299 509.306C306.397 506.749 313.39 502.803 321 501M581 504C583.076 512.706 592.641 516.911 601 517.812C603.607 518.093 611.874 517.62 611.079 513.212C610.622 510.677 605.914 510.545 604 510.282C595.419 509.106 589.037 506.925 581 504M419 541C419.828 557.176 434.7 569.625 444.715 581C449.384 586.303 453.843 592.298 461 594C459.002 588.187 454.51 583.617 450.579 579C444.148 571.448 437.675 563.887 431.654 556C427.78 550.925 424.909 543.894 419 541M604 549L604 597C600.163 597 592.478 595.55 590.032 599.318C586.858 604.206 593.053 612.738 595.258 617C597.998 622.295 602.659 627.305 604.44 633C605.604 636.722 605.049 641.129 605.576 645C606.126 649.041 607.503 654.118 605.846 658C604.023 662.271 600.539 666.084 598.053 670C588.27 685.416 575.965 699.326 568.309 716C556.911 740.822 547.68 766.242 538.695 792C531.042 813.941 523.54 837.363 504 852C508.995 840.801 515.758 830.116 518.486 818C522.255 801.263 521.102 783.92 524.261 767C525.969 757.847 529.305 749.074 531.335 740C536.323 717.695 540.496 695.262 545.765 673C550.07 654.816 554.654 636.887 559.958 619C561.524 613.715 561.894 608.173 563.927 603C572.196 581.952 590.295 567.8 602 549L604 549M604 603L604 621C599.506 616.553 595.903 609.013 594 603L604 603M793 678C793 701.902 797.124 725.23 799 749C801.586 742.837 799.786 734.48 799.17 728C798.219 718.005 797.171 708.01 796.169 698C795.523 691.54 795.848 683.927 793 678M721 683C723.627 696.358 727.524 709.339 728.83 723C731.457 750.468 731.043 779.111 738 806C740.697 799.389 736.431 789.104 736.036 782C734.708 758.16 733.277 733.648 730 710C728.937 702.328 727.915 687.569 721 683M709 694C709.221 720.764 714.612 748.973 720.501 775C721.939 781.357 723.354 787.685 725 794C725.888 797.407 726.122 800.812 729 803C727.702 792.78 724.475 783.066 722.449 773C720.235 761.997 719.45 750.924 717.536 740C714.893 724.908 711.127 709.401 711 694L709 694M822 698C821.998 718.592 817.399 739.626 810.562 759C807.132 768.717 801.87 778.242 799 788C804.019 783.697 806.034 776.918 808.694 771C815.708 755.397 821.309 737.091 822.925 720C823.564 713.243 826.073 703.962 822 698M759 722L759 726C759.71 724.24 759.71 723.76 759 722M873 723C871.469 730.399 868.883 737.583 867.461 745C864.115 762.441 863 780.287 863 798C863 808.583 862.208 821.463 871 829C869.55 822.882 867.063 817.318 866.286 811C863.986 792.283 866.786 771.576 869.289 753C870.643 742.946 874.558 733.145 875 723L873 723M760 728C760.844 737.673 766.269 755.788 777 758C780.056 748.36 779 738.017 779 728L777 728C777 737.183 777.505 746.086 775 755C771.149 750.779 768.007 746.236 765.666 741C763.731 736.673 762.85 731.809 760 728M135 889C132.862 861.909 128 835.267 128 808C131.973 815.915 132.854 825.431 134.884 834C140.006 855.614 142.397 877.895 143.91 900C144.735 912.036 143.483 923.994 145 936C146.552 932.301 146 927.983 146 924L146 902C146 879.6 143.166 856.924 138.49 835C135.362 820.333 130.556 805.861 128.428 791C127.69 785.842 128.736 781.121 128.961 776C129.511 763.432 130.297 749.375 128 737C123.056 737.856 122.511 741.476 121.755 746C120.507 753.465 120.589 761.508 121.576 769C122.652 777.176 124.598 785.787 124.961 794C125.401 803.976 124.407 814.036 125.09 824C125.843 835.01 127.422 845.988 128.035 857C128.445 864.348 129.998 871.711 131 879C131.539 882.918 131.525 886.755 135 889M126 744L126 773C122.553 765.827 122.241 751.07 126 744M148 747C146.42 752.5 148.274 757.589 149.627 763C151.867 771.964 154.035 780.882 155.565 790C159.832 815.437 165.632 840.313 168.715 866C170.243 878.743 167.402 893.828 171 906C172.661 902.041 172 897.26 172 893L172 869C171.99 842.057 165.339 814.214 159.662 788C156.75 774.554 155.462 759.691 150 747L148 747M883 869L883 867C861.591 867 840.382 870 819 870C823.39 864.688 830.069 861.255 836 857.85C846.851 851.621 858.135 846.206 869 839.999C874.592 836.805 882.576 833.602 886 828C879.323 830.531 873.354 835.191 867 838.514C854.986 844.796 842.815 850.734 831 857.424C826.99 859.695 822.368 861.803 819.153 865.184C817.961 866.438 816.157 868.535 817.176 870.397C818.983 873.7 829.804 872 833 872C849.694 871.999 866.298 869.002 883 869M482.997 921.592C473.147 921.783 472.495 937.655 482.015 937.897C492.238 938.157 492.557 921.406 482.997 921.592z"/>
</svg>
