<?xml version="1.0" standalone="yes"?>
<svg xmlns="http://www.w3.org/2000/svg" width="197" height="200">
<path style="fill:#050505; stroke:none;" d="M34 166C26.5064 170.611 21.8486 177.386 15 182.697C11.0601 185.752 6.37307 186.138 3 190C21.3725 190 39.6083 191 58 191C80.1201 191 101.922 190.052 124 191C121.492 177.16 102.099 175.305 91 171C94.6833 168.638 98.8016 162.083 103.043 161.619C108.785 160.991 115.322 165.579 121 166.532C125.031 167.208 129.129 165.155 133 166.259C140.41 168.374 144.672 173.805 153 172C147.512 169.013 142.716 167.471 138 163C150.233 159.469 159.097 148.978 171 144.468C178.155 141.757 184.276 146.928 191 144C188.439 141.183 184.243 139.647 182.742 135.956C181.302 132.414 182 127.743 182 124C182.001 110.673 187.703 96.1677 185.782 83C184.59 74.8235 176.158 69.3266 171.637 63C167.551 57.2818 165.587 50.3243 162.691 44C158.26 34.3218 153.068 26.2738 145 19.1844C118.623 -3.99344 60.7448 -0.989532 47.6991 36C40.9039 55.2668 51.5448 75.7123 45.2508 95C39.8362 111.593 30.5576 127.169 23.3086 143C21.5361 146.871 15.8008 156.413 18.1211 160.581C20.3561 164.596 29.9022 165.063 34 166M151 48C136.182 49.1694 120.536 47.5298 106 51C106.466 46.9131 108.237 43.4059 113.004 43.6127C115.562 43.7236 120.246 46.1798 121.694 42.588C123.423 38.2974 116.041 34.2514 113 33.1335C102.413 29.2414 90.5091 33.4549 80 35C80.4228 29.6875 81.0171 20.7229 84.5887 16.5293C94.1413 5.31343 115.68 8.35072 127 14.3271C140.803 21.6149 147.406 33.4491 151 48M130 11C141.658 18.1361 151.97 25.6974 158.688 38C162.522 45.0222 163.973 52.8977 167.418 60C170.078 65.4819 175.033 69.0705 177 75C174.521 75.5651 171.608 76.7988 169.04 76.3819C162.863 75.3793 161.161 65.8556 157 62L160 72C154.258 68.4164 154.051 60.193 154 54L158 55C157.218 46.037 153.399 38.1643 150 30C148.977 31.5339 149.195 31.4023 148 32C144.406 27.0009 140.647 22.3663 136.001 18.2894C133.675 16.249 129.916 14.2566 130 11M153 68C147.032 67.2458 141.863 66.9459 136 68.7747C118.223 74.3197 109.382 95.79 104.194 112C102.178 118.301 100.473 124.632 98.7068 131C97.9835 133.608 97.6086 137.202 95.436 139.066C93.0442 141.117 88.9935 141.56 86 142C98.5024 130.575 96.5083 114.218 104 100L97 106C97.3818 97.1294 101.414 88.8093 101.786 80C101.904 77.2085 99.659 69.0363 95.723 73.3765C93.59 75.7285 93.2306 80.1033 92 83C86.693 80.215 86.4368 74.5265 86 69C95.5607 66.708 102.611 59.5989 111 54.8758C120.866 49.3209 132.988 48.7564 142.999 54.3488C148.56 57.4552 152.303 61.584 153 68M137 78L138 89C132.991 88.9547 129.659 88.5555 127 84C129.47 83.7722 130.66 84.0748 133 85C133.39 81.558 134.076 79.8968 137 78M176 113C173.532 111.425 172.411 109.573 171 107C164.557 114.783 158.321 124.418 155 134L158 129L160 129L161 135C162.753 132.907 162.984 131.747 163 129L164 128L166 128C166.722 130.418 166.948 132.472 167 135L169 135L169 131C171.964 131.968 172.503 132.934 173 136C177.891 133.648 180.374 136.272 182 141C173.607 141 164.607 142.102 158 136L158 140C149.954 138.318 142.063 136.024 134 134.335C130.342 133.569 126.313 133.052 124 130L142 132C135.532 123.295 123.498 123.797 117 115C123.034 116.43 131.908 122.74 137.961 121.867C141.798 121.314 144.909 116.353 148.004 114.224C153.035 110.762 158.045 110.016 164 110C160.471 106.471 156.877 103.084 154 99C143.154 106.248 130.554 101.627 120 96C124.033 93.9949 129.437 90.3316 134 90.5478C138.979 90.7838 145.027 95.3603 149.852 94.0957C156.5 92.3534 149.503 80.3624 155.299 78.8318C160.692 77.4074 159.707 86.2922 160.742 89C162.606 93.8725 167.52 97.123 170.786 101C173.807 104.585 175.058 108.497 176 113M92 161C91.8098 166.86 89.3604 171.583 83 169C84.5962 164.321 87.0486 161.766 92 161M138 173L138 179C133.341 179.003 129.336 179.17 125 181C129.122 183.772 135.446 188.448 140.17 189.686C144.176 190.736 148.889 189.859 153 190.039C164.16 190.528 174.865 190.092 186 190C182.019 188.31 178.992 188.592 176 185C179.025 185.562 181.922 185.936 185 186C181 172.857 159.428 179.42 149 177.853C144.982 177.249 141.813 174.283 138 173z"/>
</svg>
